<?xml version="1.0" encoding="UTF-8"?>
<svg id="Layer_1" xmlns="http://www.w3.org/2000/svg" version="1.1" viewBox="0 0 374.2 416.7">
  <!-- Generator: Adobe Illustrator 30.0.0, SVG Export Plug-In . SVG Version: 2.1.1 Build 123)  -->
  <defs>
    <style>
      .st0, .st1 {
        fill: #13325e;
      }

      .st1 {
        isolation: isolate;
        opacity: .5;
      }
    </style>
  </defs>
  <path class="st0" d="M31.6,264.2l-4.9-11.9c-1.7-4.2-1.7-8.5,2.4-10.2,1.6-.6,3.6-.2,4.8.9-.5-2.9.7-5.9,3.5-7,4.6-1.9,8.4,1.4,10.7,7l5,12.3-21.6,8.9h0ZM35.2,249.3c-.8-1.9-2-2.5-3.3-2-1.3.5-1.8,1.8-1,3.9l2.4,5.9,4.3-1.8-2.5-6.1h0ZM44.3,244.9c-1.1-2.6-2.6-4-4.5-3.2-2,.8-2.2,2.8-1.2,5.2l2.8,6.9,5.6-2.3-2.7-6.6h0Z"/>
  <path class="st0" d="M19.1,229.3l-1.1-5.8,18.7-3.5-2.8-15.5,4.2-.8,3.9,21.3-22.9,4.3Z"/>
  <path class="st0" d="M25.7,197.7c-6.7-.2-11.9-6.3-11.6-14.7.2-8.4,5.7-14.2,12.4-14.1,6.7.2,11.9,6.3,11.7,14.7-.2,8.4-5.8,14.2-12.5,14.1h0ZM26.4,175c-4.1-.1-7.5,3.3-7.7,8-.1,4.7,3.1,8.4,7.2,8.5,4.2.1,7.6-3.3,7.7-8.1.1-4.7-3.1-8.3-7.3-8.4Z"/>
  <path class="st0" d="M28.1,159.3c-6.4-1.6-10.1-8.8-8.1-16.9.9-3.6,2.8-6.6,5.2-8.5l2.4,4.3c-1.8,1.4-2.6,3.2-3.1,5-1.2,4.8,1.1,9.1,5.1,10.1,4,1,8.2-1.6,9.3-6.2.6-2.4.4-4.9-.7-6.9l4.3-2.7c1.5,3.1,1.8,6.8.8,10.8-2.1,8.1-8.7,12.6-15.2,10.9h0Z"/>
  <path class="st0" d="M27.2,121.4l2.6-5.3,11.6,5.8c-.2-.3-1.1-2.2-1.6-3.6l-5-12.2,3-6.1,5.3,13.2,16.1-3.9-3,6.2-11.3,2.7,2.4,6.6,3.5,1.7-2.6,5.3-20.9-10.4h0Z"/>
  <path class="st0" d="M44.8,89.1l3.6-4.6,14.9,11.8,9.7-12.4,3.4,2.7-13.3,17-18.3-14.4h0Z"/>
  <path class="st0" d="M66.6,63.4l16.1-14,2.8,3.3-11.7,10.1,3.1,3.6,11-9.6,2.8,3.2-11,9.6,3.7,4.3,12.1-10.5,2.8,3.3-16.5,14.3-15.2-17.7h0Z"/>
  <path class="st0" d="M106.9,49l-15.1-6.2,5.9-3.3,6.5,2.7c1.7.7,3.2,1.6,3.2,1.6,0,0,.2-1.9.4-3.6l1-6.9,5.9-3.3-2.7,16.1,5.1,9.3-5.1,2.9-5.1-9.2Z"/>
  <path class="st0" d="M141.5,20.5l5.8-1.2,3.9,18.6,15.4-3.2.9,4.2-21.2,4.4-4.8-22.8h0Z"/>
  <path class="st0" d="M173.2,26.3c0-6.7,6.1-11.9,14.5-11.8,8.4.1,14.4,5.6,14.3,12.3,0,6.7-6.1,12-14.5,11.8-8.4-.1-14.4-5.6-14.3-12.3ZM195.9,26.6c0-4.1-3.4-7.5-8.2-7.6s-8.3,3.2-8.4,7.3c0,4.2,3.5,7.5,8.3,7.6,4.8,0,8.2-3.2,8.3-7.4h0Z"/>
  <path class="st0" d="M215.7,16.9l10.6,2.6c8.7,2.1,12.9,8.6,11.4,14.8s-8.2,10-16.9,7.9l-10.6-2.6s5.5-22.7,5.5-22.7ZM221.6,37.9c5.1,1.2,9.1-1,10.1-5.1,1-4.1-1.6-8-6.7-9.2l-4.6-1.1-3.5,14.3,4.6,1.1Z"/>
  <path class="st0" d="M246.8,37.6c3-6,10.7-8.1,18.2-4.3,3.4,1.7,5.9,4.3,7.3,7l-4.8,1.4c-1-2.1-2.6-3.4-4.4-4.3-4.2-2.1-8.9-.8-10.8,2.9-1.9,3.7-.2,8.3,4.1,10.5,2.3,1.2,4.7,1.3,6.6.7l1.5-3.1-4.1-2.1,1.6-3.3,8.9,4.5-4.1,8.1c-3.5,1.7-8.3,1.3-12.7-.9-7.5-3.8-10.4-11.3-7.4-17.3h0Z"/>
  <path class="st0" d="M287.2,47l16.5,13.4-2.7,3.4-12-9.7-3,3.7,11.3,9.2-2.7,3.3-11.3-9.2-3.5,4.4,12.4,10.1-2.7,3.4-17-13.8,14.6-18.2h0Z"/>
  <path class="st0" d="M323.7,82.3l3.1,4.7-4.1,13.9c-.6,2.2-1.8,5.1-1.8,5.1l12.8-8.5,3.2,4.9-19.4,12.9-3.1-4.7,3.9-13.5c.8-2.7,1.9-5.4,1.9-5.4l-12.7,8.4-3.2-4.9,19.4-12.9h0Z"/>
  <path class="st0" d="M324.6,123.7c.9-.4,2,.1,2.5,1.2.5,1.1.1,2.3-.8,2.7-.9.4-2-.1-2.5-1.2-.5-1.1-.1-2.3.8-2.7ZM331.4,112.6c4.1-1.8,8.8.3,11.1,5.5,2.3,5.2.7,10.1-3.4,12-4.1,1.9-8.8-.3-11.1-5.5-2.3-5.2-.8-10.2,3.4-12ZM337.3,125.8c2.4-1.1,3.3-3.7,2.1-6.3s-3.8-3.8-6.1-2.7c-2.4,1.1-3.3,3.8-2.1,6.4s3.8,3.7,6.1,2.7h0Z"/>
  <path class="st0" d="M340.1,153.6c2.2-.3,4.6.3,6.7,1.6l10.7,6.7-1.9,4.8-6-3.9c0,.2.2.6.2.8.8,5.3-2.1,9.7-6.3,10.3-4.8.7-9-2.6-10-8.9s2-10.7,6.6-11.4h0ZM342.4,168.1c2.1-.3,3.6-2.3,3.2-5-.4-2.7-2.4-4.1-4.5-3.8-2.3.4-3.8,2.2-3.4,5,.4,2.7,2.4,4.1,4.7,3.8h0Z"/>
  <path class="st0" d="M338.2,181.7l3.2,2.5c-1.4,1.7-2,4.2-2,6.4-.1,3.5,1.4,6,3.7,6,1.8,0,3.4-1.9,3.5-5.3,0-1.4-.1-2.5-.7-3.9l2.9-1.8,5.8,8.4.3-10.5h4.3c0,.1-.5,17.8-.5,17.8h-4.1c0-.1-4.7-6.7-4.7-6.7,0,.8-.2,1.5-.4,2.2-.9,3.3-3.3,5.7-6.6,5.6-5.3-.1-7.7-5.3-7.6-11.5.1-3.9,1.2-7.2,3-9.3h0Z"/>
  <path class="st0" d="M336,223.3l2.8-12.5,3.2.7,13.7,13.5-3,4.2-11.1-11-1.3,6.1,5,1.1-1.2,5.3-5-1.1-.7,3.2-4.2-.9.7-3.2-4.4-1,1.2-5.3,4.4,1h0Z"/>
  <path class="st0" d="M329.4,238.3l2.4,3.4c-1.5,1-3.3,3.1-4.2,5.2-1.5,3.5-.5,5.8,1.3,6.6,2.3,1,4.4-1,5.8-4.1.8-1.8.9-3.8.9-5.1l2.3-1.3,10.7,4.6-6.8,16-3.9-1.7,4.6-10.8-3.9-1.7c-.1,1-.4,2.1-.9,3.1-2.1,5-6.3,8.3-10.7,6.4-4.6-2-5.7-7.4-3.1-13.5,1.5-3.4,3.5-5.8,5.6-7.1h0Z"/>
  <path class="st0" d="M95.3,369.8c2.7-6.1,10.1-8.7,17.4-5.5s10.4,10.4,7.8,16.5c-2.7,6.1-10.1,8.8-17.4,5.6s-10.4-10.4-7.8-16.5h0ZM115.1,378.4c1.7-3.8,0-8.2-4.2-10s-8.6-.1-10.2,3.7c-1.7,3.8,0,8.2,4.3,10,4.1,1.8,8.5.1,10.2-3.7Z"/>
  <path class="st0" d="M135.4,384.8l-5.9-13.4,6.2,1.5,3.7,9.3,7.9-6.5,6,1.5-11.4,9.2,6.2,13.6-6.3-1.5-4-9.5-8.1,6.5-6-1.5,11.7-9.2h0Z"/>
  <path class="st0" d="M160.6,378l19.3,1.7-.4,4.3-13.8-1.2-.4,4.7,11.7,1-.4,4.3-11.7-1-.9,9.9-5.6-.5,2.1-23.2h0Z"/>
  <path class="st0" d="M186.1,391.7c-.4-6.6,4.9-12.4,12.9-12.9s14,4.5,14.5,11.1c.4,6.7-4.9,12.4-12.9,12.9s-14-4.5-14.5-11.2ZM207.6,390.3c-.3-4.1-3.8-7.2-8.3-6.9-4.5.3-7.7,3.8-7.4,7.9.3,4.2,3.8,7.3,8.4,7,4.5-.3,7.6-3.8,7.3-8h0Z"/>
  <path class="st0" d="M220.6,376.9l10.8-2.6c7.4-1.8,12.3,1.2,13.4,6.1.7,2.9-.3,6.1-3.1,8.4l6.9,5.4-6.3,1.5-5.2-4.4c-.7.3-1.4.5-2.1.7l-4.9,1.2,1.2,5.1-5.4,1.3-5.5-22.7h0ZM234.8,387.6c3.2-.8,4.9-3.4,4.3-5.9-.6-2.6-3.3-4.1-6.5-3.3l-5.6,1.3,2.2,9.2,5.5-1.3h0Z"/>
  <path class="st0" d="M250.2,369l9.5-4.2c7.8-3.4,14.8-.8,17.4,5.1s-.2,12.8-8,16.3l-9.5,4.2-9.4-21.4ZM267.2,382.3c4.5-2,6.3-6.2,4.6-10-1.7-3.9-6-5.4-10.5-3.4l-4.2,1.8,5.9,13.4,4.2-1.8h0Z"/>
  <path class="st0" d="M356.8,334.2c.3-1.7-.2-11.3-11.7-11.5-9.3-.1-11.3,3.9-17.9,4.9-5,.7-12.8-.9-10.1-6,35.2-34,57.1-81.7,57.1-134.5C374.2,83.8,290.4,0,187.1,0S0,83.8,0,187.1s21.9,100.5,57.1,134.5c2.7,5-5.1,6.7-10.1,6-6.6-.9-8.6-5-17.9-4.9-11.5.2-12,9.8-11.7,11.5-6.3-1.5-11.8,1.2-12.8,6.3-1.1,5.4,1.8,9,6.8,12.5,6.6,4.6,17.2,4.4,17.5,4.4-8.4,13-7.9,22.9-7.8,27.1.1,5,4,19.7,20,19.5,14-.1,19.7-8.9,21.1-15.5.5-2.2.8-6.8.4-8.5h0c35.9,23.2,78.6,36.6,124.5,36.6s88.6-13.5,124.4-36.6h0c-.4,1.8,0,6.3.4,8.5,1.4,6.6,7.1,15.4,21.1,15.5,16.1.2,19.9-14.5,20-19.5.1-4.2.6-14.1-7.8-27.1.3,0,10.9.2,17.5-4.4,5-3.5,7.9-7.1,6.8-12.5-1-5.1-6.5-7.8-12.8-6.3h0ZM329.5,333c.9-1,1.9-1.9,3-2.6.3-.2.7-.4,1.1-.3.2,0,.3.2.3.4,0,0,0,.2-.1.2,0,.1-.2.2-.3.4-.4.5-.9.8-1.3,1.3-.5.6-1,1.3-1.5,2-1.2,2-2.1,4-2.4,6.4-.5,5.3,1,10.8,3.5,15.5,1.3,2.4,2.6,4.8,4,7.1,2.5,4.4,5.2,9.1,5.1,14.4,0,3.1-.9,7.3-3.5,9.4-2.1,1.6-5.1,2.3-7.5,1-.9-.5-1.9-1.2-2.8-2.9-1.7-3.2-.3-7.9,3.1-9.4,2.2-1,4.5.5,4.9,2.8.2,1,0,2.1-.8,2.8-.9.8-2,1-3,1.7-.9.6-1.1,1.8-.5,2.7,1.2,1.6,3.8.6,5.2-.5,1.7-1.4,2.8-4.3,2.3-8.5-.5-4.5-3.1-7.9-5.7-12.3-2.9-4.7-6.4-9.4-7.3-16-.5-3.8-.4-7.8,1.3-11.3.7-1.5,1.6-2.9,2.7-4h0ZM320.2,335.9c.6-1.7,1.5-3.1,2.8-4.4,1.9-1.6,4.1,1,2.4,2.7-2.7,2.9-3.7,7-3.5,11,0,.5.2,1.7.2,2.1.3,1.6.8,3.3,1.3,4.9l1.1,2.7c.1.3,0,.6-.3.7-.2,0-.5,0-.6-.2l-1.5-2.6c-.8-1.5-1.5-3.3-2.1-5-1.1-3.8-1.4-8.1,0-11.9h0ZM317.1,333.6c-2.2,3-1.5,7.5-.6,11,.2.6-.6.9-.9.4-1.8-3.1-3.1-6.5-2.7-10.2.2-1.4.7-2.9,1.8-3.9,1.8-1.6,4.2,1.1,2.4,2.7h0ZM59.5,330.9c1.1,1.1,1.6,2.5,1.8,3.9.4,3.7-.9,7.1-2.7,10.2-.3.5-1.1.2-.9-.4.9-3.5,1.6-8.1-.7-11-1.8-1.6.6-4.3,2.4-2.7h0ZM51.2,331.5c1.3,1.2,2.2,2.7,2.8,4.4,1.5,3.8,1.2,8.1,0,11.9-.5,1.7-1.3,3.4-2.1,5l-1.5,2.6c-.1.2-.4.3-.6.2-.3-.1-.4-.4-.3-.7l1.1-2.7c.5-1.6,1-3.3,1.3-4.9,0-.5.2-1.6.2-2.1.3-4-.8-8.1-3.5-11-1.7-1.7.6-4.3,2.4-2.7h0ZM40.5,330.2c.4-.1.8.1,1.1.3,1.1.7,2.2,1.6,3,2.6,1.1,1.2,2,2.6,2.7,4,1.6,3.6,1.8,7.5,1.3,11.3-.9,6.6-4.4,11.3-7.3,16-2.7,4.4-5.2,7.8-5.7,12.3-.5,4.2.6,7.1,2.3,8.5,1.4,1.1,4,2.1,5.2.5.6-.9.4-2.1-.5-2.7-.9-.7-2.1-.9-3-1.7-.8-.7-1-1.8-.8-2.8.4-2.3,2.7-3.8,4.9-2.8,3.3,1.6,4.8,6.2,3.1,9.4-.9,1.7-1.8,2.4-2.8,2.9-2.4,1.3-5.4.7-7.5-1-2.6-2-3.5-6.2-3.5-9.4,0-5.2,2.6-9.9,5.1-14.4,1.3-2.4,2.7-4.7,4-7.1,2.4-4.6,3.9-10.2,3.5-15.5-.2-2.4-1.2-4.4-2.3-6.4-.4-.7-.9-1.4-1.5-2-.4-.5-.9-.8-1.3-1.3,0-.1-.2-.2-.3-.4,0,0,0-.1,0-.2,0-.2.1-.3.3-.4h0ZM364.2,346c-1.6,2.6-4.3,4.5-7.7,5.9-3.7,1.4-6.3,1.6-9.7.8-2.9-.7-5.3-3.7-5.7-6.7-.8-6.2,2.8-7,5.1-8.5,2.4-1.4,3.2-4.9,0-6.3-1.8-.9-4.1,0-5.6,1.2-1.8,1.5-3.1,3.7-3.9,5.9-.5,1.4-.7,2.8-.8,4.2-.2,5.4,1.9,10.2,4.4,14.9,2.4,4.5,5.4,8.9,6.6,14,1.2,5,1.4,10.5-.4,15.4-1.5,4.3-4.8,8.3-9.1,9.9-1.3.5-2.6.7-4,.7-7.1,0-10.3-2.9-11.6-4.6-.5-.6-1.1-1.4-1.6-2.4-3.6-6.6-1.9-14.9,3.8-19.9.3-.3.6-.5.9-.8.7-.6.7-1.7,0-2.4-4.1-4.5-7.5-1.3-12.4,2.1-12.3,8.5-25.5,15.8-39.4,21.6-27.3,11.5-56.3,17.4-86.2,17.4s-58.9-5.9-86.2-17.4c-14-5.9-27.2-13.2-39.6-21.7-4.8-3.4-8.1-6.5-12.2-2-.6.7-.6,1.8,0,2.4.3.2.6.5.9.8,5.7,5,7.4,13.2,3.8,19.9-.5.9-1,1.7-1.6,2.4-1.4,1.7-4.5,4.6-11.6,4.6s-2.7-.2-4-.7c-4.3-1.6-7.6-5.6-9.1-9.9-1.8-4.9-1.6-10.4-.4-15.4,1.2-5,4.2-9.4,6.6-14,2.4-4.7,4.6-9.5,4.3-14.9,0-1.4-.3-2.9-.8-4.2-.7-2.2-2.1-4.4-3.8-5.9-1.4-1.2-3.8-2.1-5.6-1.2-3.1,1.5-2.3,4.9,0,6.3,2.3,1.4,5.9,2.2,5.1,8.5-.4,3-2.7,6-5.7,6.7-3.5.8-6.1.6-9.7-.8-3.4-1.3-6.1-3.2-7.7-5.9-1.2-2.1-1.1-5.2,1-6.6,2.7-1.8,6.3-.6,7.7,1.9.6,1.1,1.2,2.1,1.9,3.1,1.1,1.4,4.4,1.5,4.6-.7.1-1.2-.8-1.8-1.5-2.5-.9-.8-1.5-2-1.9-3.1-1-3.2-.9-5.4.2-7.3,1.5-2.6,4.2-3.8,6.6-3.8s4.9.6,7.1,2.4c2.2,1.8,5,6,5.8,10.8.7,3.9.4,7.8-.9,11.5-1.7,5-4.5,9.5-6.8,14.2-1.2,2.5-2.2,5.1-2.8,7.7-.6,2.9-.8,5.9-.1,8.8,1,4.4,3.7,7.9,8,9.1,2.3.7,5.4.3,7.4-1,3.7-2.4,5.3-7.1,4.2-11.4-.6-2.2-1.8-4.1-3.3-5.7-1.3-1.3-2.4-2.6-2.8-4.7-.3-1.4.3-3.4,1.7-5.2,3.1-4,6.9-5.4,10.7-8.7,1.3-1.2,3.6-4.2,4.4-5.8,1.4-2.8,2.1-5,3.3-8,2.4-6,8.8-5.5,9.8-4.7,0,0,0,0,0,0,28.6,21.6,63.5,35.2,101.5,37.4l-5.2-5.2h0s-3.8-3.9-3.8-3.9c-40.2-4.5-77.3-22.3-106.3-51.2-33.8-33.8-52.4-78.7-52.4-126.5S26.9,94.4,60.6,60.6C94.4,26.9,139.3,8.3,187.1,8.3s92.7,18.6,126.5,52.4c33.8,33.8,52.4,78.7,52.4,126.5s-18.6,92.7-52.4,126.5-66.2,46.8-106.4,51.3l-3.9,3.9-3.9,4-1.2,1.2c38-2.2,73-15.8,101.6-37.4,0,0,0,0,0,0,1-.7,7.4-1.2,9.9,4.7,1.2,3,1.9,5.2,3.3,8,.8,1.6,3.1,4.6,4.4,5.8,3.8,3.3,7.6,4.7,10.7,8.7,1.4,1.8,2,3.8,1.7,5.2-.4,2.1-1.5,3.3-2.9,4.7-1.6,1.6-2.8,3.5-3.3,5.7-1.1,4.2.5,8.9,4.2,11.4,2,1.3,5.1,1.7,7.4,1,4.4-1.3,7.1-4.8,8-9.1.6-2.9.5-5.9-.1-8.8-.6-2.7-1.6-5.3-2.8-7.7-2.2-4.7-5-9.3-6.8-14.2-1.3-3.7-1.6-7.7-.9-11.5.9-4.8,3.6-9,5.9-10.8s5.2-2.4,7.1-2.4,5.1,1.2,6.6,3.8c1.1,1.9,1.2,4.1.2,7.3-.4,1.1-1,2.3-1.9,3.1-.8.7-1.7,1.3-1.5,2.5.3,2.2,3.5,2.2,4.6.7.7-1,1.3-2,1.9-3.1,1.4-2.5,5-3.7,7.6-1.9,2.1,1.4,2.2,4.6,1,6.6h0Z"/>
  <polygon class="st0" points="232.7 331.2 216.2 331.2 187.1 360.4 157.9 331.2 141.4 331.2 178.8 368.6 178.8 368.7 187 376.9 187.1 376.9 187.1 376.9 195.4 368.7 195.3 368.6 232.7 331.2"/>
  <circle class="st0" cx="187.1" cy="291.4" r="8.5"/>
  <path class="st1" d="M293.4,276.2l-.4.5s.2-.2.4-.5Z"/>
  <polygon class="st0" points="236.1 215.6 241.5 215.6 241.5 222.2 242.8 222.2 242.8 214.1 234.5 214.1 234.5 216.6 236.1 216.6 236.1 215.6"/>
  <path class="st0" d="M176,272.2c-.8,0-1.6.5-1.6,1.3,0,.8.5,1.6,1.3,1.6l11.4,1.1h.1c.8,0,1.4-.6,1.5-1.4,0-.8-.5-1.6-1.3-1.6l-11.4-1.1h0Z"/>
  <path class="st0" d="M121.7,269.6h.2c4,2.2,14.4,7.2,25.6,9.2h.6c0,.1.5-.2.5-.2.6-.4,5-4,6.3-5.1.6-.5.7-1.5.2-2.1-.5-.6-1.5-.7-2.1-.2-2.2,1.8-4.6,3.8-5.6,4.6-10.5-2-20.3-6.7-24.1-8.7-.2-.1-.3-.2-.4-.2-.8-.3-1.6,0-1.9.8-.3.7,0,1.6.7,2h0Z"/>
  <path class="st0" d="M211.2,236.6h-2.1v-3.7h-3.9v3.9h-2.6v5.1c0,0,2.4,0,2.4,0v5.8h3.6c0,0,0-5.9,0-5.9h2.5c.7-.5.7-4.7,0-5.2h0Z"/>
  <rect class="st0" x="144.3" y="268" width="3.8" height="4.6" rx=".9" ry=".9"/>
  <rect class="st0" x="139.1" y="266.9" width="3.7" height="4.5" rx=".9" ry=".9"/>
  <rect class="st0" x="133.9" y="265.6" width="3.7" height="4.5" rx=".9" ry=".9"/>
  <rect class="st0" x="130.1" y="264.6" width="3" height="3.6" rx=".9" ry=".9"/>
  <rect class="st0" x="126.7" y="263.7" width="2.4" height="2.9" rx=".9" ry=".9"/>
  <path class="st0" d="M124.4,262.9h1.2c.3,0,.5.2.5.5v1.4c0,.3-.2.5-.5.5h-1.2c-.3,0-.5-.2-.5-.5v-1.4c0-.3.2-.5.5-.5Z"/>
  <path class="st0" d="M121.4,262.1h1.2c.3,0,.5.2.5.5v1.4c0,.3-.2.5-.5.5h-1.2c-.3,0-.5-.2-.5-.5v-1.4c0-.3.2-.5.5-.5Z"/>
  <path class="st0" d="M197,257.5h2.6c.3,0,.5.2.5.5v3.3c0,.3-.2.5-.5.5h-2.6c-.3,0-.5-.2-.5-.5v-3.3c0-.3.2-.5.5-.5Z"/>
  <path class="st0" d="M202.3,256.9h2.6c.3,0,.5.2.5.5v3.3c0,.3-.2.5-.5.5h-2.6c-.3,0-.5-.2-.5-.5v-3.3c0-.3.2-.5.5-.5Z"/>
  <path class="st0" d="M207.5,256.3h2.6c.3,0,.5.2.5.5v3.3c0,.3-.2.5-.5.5h-2.6c-.3,0-.5-.2-.5-.5v-3.3c0-.3.2-.5.5-.5Z"/>
  <path class="st0" d="M271.5,241.3c.2.3.4.7.4,1.1,0,.5.4.9.9.9h.6c.4,0,.7-.4.7-.8v-2.9c0-.3-.1-.6-.3-.8l-4.6-7.2c-.4-.6-1.1-.6-1.6-.2l-1.4,1.5c-.5.4-.5,1.2,0,1.7l5.4,6.9h0Z"/>
  <path class="st0" d="M173.8,235.8l3.7,8.8c.3.7,1.2.7,1.5,0l5.2-12.5c.3-.7,1.4-.8,1.7,0l6.3,15.1h2.5l-8.3-19.1c-.1-.3-.1-.6,0-.8.4-.7,1.4-.8,1.8,0l7.4,13.7c.4.6,1.3.7,1.7,0l10.1-15.4,9.6,10.7,1.5-1.3-5.5-9.5h5.7v-10.6c0-.9.7-1.6,1.6-1.6h4.6c.9,0,1.6.7,1.6,1.6v8.9h-1.8v10.9c0,.5.6.7.9.4l10.6-11.1,3.2,5.5,1.5-.9-4.3-10.2-5.6,5.6h-2v-10.9c0-1.4-1.1-2.4-2.4-2.4h-7.7c-1.9,0-3.5,1.6-3.5,3.5v8.8h-5.1v-9c0-5,1.9-6.5,1.9-6.5.4-.3.6-.9.2-1.4-.3-.5-.9-.6-1.4-.3-.3.2-2.8,2.1-2.8,8.2v2.1h-1.2v-12.5s0-2.4-1.9-2.4-2.4.9-2.8,2.1c-.3,1.1-.2,2.2-.2,3.4,0,.6,0,1.1,0,1.7v11.7h1.1v-14.7c0,0,1.3,0,1.3,0v16.5h-10v-9.7h1.7v8.6h1.5v-8.6h0c0-.2-.8-9-8.3-9.1-8.5-.2-9.5,9.4-9.5,9.4h3.7v13.6c0,0-4.9,9-4.9,9l-2.2-6.7h3.1v-2h-7.1l-4.8,17.1h2.7l3.4-7.6h0ZM200.6,224.7l-4.1,11.3-4.9-11.3h9,0Z"/>
  <path class="st0" d="M197.9,276.8h0l4.6-.2c.8,0,1.5-.7,1.4-1.6,0-.8-.7-1.5-1.6-1.4l-4.6.2c-.8,0-1.5.7-1.4,1.6,0,.8.7,1.4,1.5,1.4Z"/>
  <path class="st0" d="M182.7,154.8c-.8,0-1.5.7-1.5,1.5s.7,1.5,1.5,1.5h17.8c.8,0,1.5-.7,1.5-1.5s-.7-1.5-1.5-1.5h-17.8,0Z"/>
  <path class="st0" d="M179.8,131.1l-.2,21.2h8.7v-30l-2.4-3.1c-.6-.9-1.9-.9-2.6-.1l-4.8,5.5c-.9,1-1,2.4-.4,3.6l1.7,3h0Z"/>
  <path class="st0" d="M197.8,152.5h7.9c0,0,0,0,0,0h0c.8,0,1.4-.7,1.4-1.5v-37.3c0-.4-.1-.7-.4-1l-1.6-1.7c-.6-.6-1.5-.7-2.1,0-.6.6-.6,1.5,0,2.1l1.2,1.3v7.2l-3.7-3.5c-.7-.6-1.8-.6-2.5,0l-4.7,4.7c-.6.6-.9,1.3-.9,2.1h0v7.1h5.3v20.5c0,0,0,0,0,0Z"/>
  <path class="st0" d="M153.6,278.2c-.8-.3-1.6.2-1.9,1-.2.8.2,1.6,1,1.9.4.1,3.6,1.2,4.8,1.4.1,0,.2,0,.3,0,.7,0,1.3-.5,1.5-1.2.2-.8-.3-1.6-1.1-1.8-.9-.2-3.6-1-4.5-1.4h0Z"/>
  <path class="st0" d="M280.6,278.9c-.1,0-10.9,2.9-46,.8h-1.1c0,0,0,11.8,0,11.8l.8.2c.4.1,9.8,2.4,26.6,2.4s3.9,0,6-.1h.8c.4,0,.7-.4.7-.7v-10.9c1.1,0,1.6,0,2.5-.1v8c0,.5.5,1,1,1s1-.5,1-1v-8.1c5.7-.5,8-1.1,8.2-1.1.5-.1.8-.7.7-1.2s-.7-.8-1.2-.7h0ZM265.4,292c-1.1,0-2.2,0-3.2,0l-1.3-6.9c-.2-.8-1.3-.8-1.5,0l-1.5,7c-.5,0-1,0-1.5,0l-1.4-7.2c-.2-.8-1.3-.8-1.5,0l-1.5,7.1c-.6,0-1.1,0-1.7-.1l-1.4-7.6c-.2-.8-1.3-.8-1.5,0l-1.5,7.3c-.5,0-1.1-.1-1.6-.2l-1.4-7.4c-.2-.8-1.3-.8-1.5,0l-1.4,6.8c-1.5-.2-2.5-.5-3.2-.7v-8c13.5.8,21.6.6,28.6.4v9.6h0Z"/>
  <path class="st0" d="M221.1,279.8c.2,0,4.3,1.1,8.8,1.4h0c.5,0,1-.4,1-.9,0-.5-.4-1-.9-1.1-4.4-.3-8.4-1.3-8.5-1.3-.5-.1-1.1.2-1.2.7s.2,1.1.7,1.2h0Z"/>
  <path class="st0" d="M219.3,288.8l5.9,1.5,6.4,1.2v-2c0,0-.9-.2-.9-.2h0l-1.2-6.2c-.2-.7-1.3-.7-1.5,0l-1.7,5.5c-.5-.1-1-.2-1.5-.3l-1.4-6.8c-.2-.7-1.3-.7-1.5,0l-1.5,5.6h-1c0-.1,0,1.8,0,1.8h0Z"/>
  <path class="st0" d="M186,240.4c-.2,0-.4,0-.5.3l-2.9,3.8v6l5,1v-11.1s-1.6,0-1.6,0h0Z"/>
  <polygon class="st0" points="172.5 242.4 172.5 248.5 175.5 248.5 175.5 245 173.6 242.4 172.5 242.4"/>
  <path class="st0" d="M179.2,283.2l-7.3-2.1c-.9-.3-1.5-1.1-1.5-2v-20.1c0-.9.8-1.6,1.7-1.4l17.9,4c.9.2,1.6,1,1.6,2v17.4c1.1.5,2.1,1.2,3,2v-32.4h-3s0,3.3,0,6.5-.8,1.5-1.7,1.4l-18.1-4c-.9-.2-1.5-1-1.5-1.9v-6.2h-2.9l-.9,31.7c0,.9-.8,1.5-1.7,1.4l-1.5-.4v3.7s13.4,3.9,13.4,3.9c.6-1.3,1.4-2.4,2.4-3.4h0Z"/>
  <path class="st0" d="M158.5,264.4v4.6c0,0-2.2-.7-2.2-.7v-2.1l1.1-1v-23.6l-2.4-1.3v1.7l-1.8,1.3-26.8-1.6v1.6l25.3,2.1v7.8l-26.7-3.1v.2c0,.6.4,1.2,1,1.4l7.2,3c.7.3,1.1.9,1.1,1.7v1.8c0,.8-.7,1.4-1.5,1.3l-9.3-1.1c-.6,0-1.1.4-1.1,1v.4c0,.5.4,1,.9,1.1l30.9,5.2v3.8l4.2,1v7.4c0,0,4.7.7,4.7.7v-12.9l-4.6-1.6h0ZM139.4,260.4l-2.2-.3v-4s2.2.3,2.2.3v4ZM144.3,261.2l-2.6-.4v-5.4s2.6.4,2.6.4v5.4s0,0,0,0ZM149,261.9l-2.2-.3v-4s2.2.3,2.2.3v4Z"/>
  <path class="st0" d="M187.1,42.5c-79.7,0-144.6,64.9-144.6,144.6s48.2,126.4,112.5,141l4.1-7.8s0,0,0,0c-1.6-.3-3.1-.7-4.7-1.1-.2,0-.4-.1-.6-.1-1.3-.3-2.6-.7-3.8-1-.5-.1-.9-.3-1.4-.4-1-.3-2-.6-3-.9-.5-.2-1-.3-1.5-.5-1-.3-2-.7-2.9-1-.5-.2-.9-.3-1.4-.5-1.3-.5-2.7-1-4-1.5-.6-.2-1.1-.5-1.6-.7-.8-.3-1.6-.7-2.4-1-.7-.3-1.3-.6-2-.9-.6-.3-1.3-.6-1.9-.9-.7-.4-1.4-.7-2.1-1-.6-.3-1.1-.6-1.7-.9-.8-.4-1.5-.8-2.3-1.2-.2,0-.3-.2-.5-.3-1.9-1-3.7-2.1-5.5-3.2-.3-.2-.6-.4-.9-.6-.9-.5-1.7-1.1-2.6-1.6-.3-.2-.7-.4-1-.6-.9-.6-1.7-1.2-2.6-1.8-.2-.1-.4-.3-.7-.5-4-2.9-7.9-6-11.6-9.3,0,0-.1-.1-.2-.2-6.7-6-12.8-12.7-18.2-19.9h36c-.2-1.3.3-2.5,1.2-3.9,1.2-1.7,2.2-3.5,2.9-5.5.3-.8.6-1.7,1.3-2.2.9-.7,2.3-.4,3.2-1.1.5-.4.7-1.1.8-1.7,0-.5,0-.9,0-1.3-.2-1-.4-1.9-.4-2.9v-7.4c0-1,.4-1.9,1.2-2.5,0,0,.1,0,.2-.1,1-.7,1.6-.9,1.7-2.1,0-1,0-2,.3-2.9.7-2.4,3.7-3.4,5.4-5,1.1-1,1.4-2.4,1.2-3.8-.3-3.5,2.7-3.9,4.6-2.8.5.3,1.4.6,2,.4,1.8-.4,1.6-2.2,4.8-.5,1.7.2,2.4-1.2,2-2.4,0-.8-.7-1.3-1-2-1-1.7-3.9-1-4.1-2.5,0,0,0-.1,0-.2,0-.9,1.2-.6,1.8-.7h0c0,0,.1,0,.2,0h0c.9-.7.3-1.6,1.2-2.4.8-.6,1.4-1.4,2.3-1.8,1.6-.7,3.4.4,5.1,0,1.2-.4,2.1-1.4,3.6-1.4h0v2.7h0v3.7h0l-.3,14.7v.2h-3.9s-6.8-6.7-6.8-6.7c-.5-.5-1.2-.5-1.7,0-.2.2-.4.5-.3.9,0,.3.1.6.4.9l2.4,2.3h0l-1.7,2.5h0v3.3h-2.5v-.5c0-.9-.3-1.7-.9-2.4l-3-3.5c-.5-.6-1.3-.6-1.8,0l-2.6,2.6c-.2.2-.4.5-.4.9s.1.6.4.9.5.4.9.4.6-.1.9-.4l1.1-1.1c.3-.3.7-.2.9,0l1.1,1.4c.6.7.9,1.5.9,2.4v3.1c0,.7.5,1.2,1.2,1.2s1.2-.5,1.2-1.2v-1.1h4.9v-2.3h0v-2.6h0l1-1.5h0l3.3,3.2h0v5.7c0,.7.5,1.2,1.2,1.2s1.2-.5,1.2-1.2v-5.4h0l2.7,1.8h0l4.5,4.1h0v21.7h3.7v-24.5h0l-1.6-1.9c-1-1.2-.7-3,.6-3.8l9-5.6h0l.5-23.2h0l-1.1.8-6.9,5.3c-.2.1-.4.2-.6.2-.3,0-.6-.1-.8-.4-.3-.4-.2-1.1.2-1.4l9.2-7.1v-1.1s1-40.8,1-40.8h0l-2.4,2.3-4,3.7h0l-6.1,5.7c-.2.2-.4.3-.7.3s-.5-.1-.7-.3c-.4-.4-.4-1,0-1.4l14-12.9h0v-4.1c0,0,.1-1.6.1-1.6l.9-36.7h0l-2.2,1.7h0l-5.9,4.8c-.2.2-.4.2-.6.2s-.6-.1-.8-.4c-.4-.4-.3-1.1.1-1.4l9.4-7.6h0l.3-12.6h0l1.9-3.2h0v-9.4h0l3.5-3.2h0l-2.3-10.9h0l-.8-3.7h0l-1.4-6.5h0l-.8-3.7h0l-.3-1.3c0-.4-.7-.4-.8,0l-.3,1.3h-26.2c12.6-3.9,26.1-6,39.9-6s27.3,2.1,39.9,6h-50.6l.8,3.7h28.9l-1.3,6.5h-26.2l.8,3.7h11.7l-2.1,7h-8l.8,3.7h6.5l2.2,2.3v4.8h0v3.7h0v4.4h-1.7l-1.1-4.4h0l-.9-3.7h0l-1.3-5.5c-.3-.9-1.5-.8-1.7,0l-1.2,5.5h0l-.8,3.7h0l-.9,4s-2.7-3.4-4.2-.6l2.5,3.4c0,.1.2.2.3.3h0c.1,0,.2.2.4.2,0,0,0,0,0,0,.1,0,.3,0,.4,0h3.4v3.4h0v.7c0,.8.7,1.5,1.5,1.5s1.5-.7,1.5-1.5v-4.1h2.9v3.4h0v.8c0,.8.7,1.5,1.5,1.5s1.5-.7,1.5-1.5v-4.2h2.7v3.4h0v.7c0,.8.7,1.5,1.5,1.5s1.5-.7,1.5-1.5v-4.1h2.5v3.4h0v4.2h-21.4c-.8,0-1.5.7-1.5,1.5s.7,1.5,1.5,1.5h5.7l3.7,6.6c.3.5,1,.4,1.2,0l3.4-6.5h7.5s.6,0,.6,0c.8,0,1.5-.7,1.5-1.5v-1.7l3.6-2.4v-2.8c0,0-1-1.5-1-1.5l-.8-1.1h0c0-.1,0-.2.1-.2l2.3-2.7,2.1,2.9.6.8v2.9h0v7.5h0v3.7h0v8.6h0v3.7h0v7.8h0v3.7h0v9.2h0v3.7h0v9.1h0v3.7h0v9.2h0v3.7h0v9.5h0v3.7h0v7.6c-1-.9-1.9-1.8-2.8-2.7-.8-.8-1.2-1.8-1.2-2.9v-28c0-.3,0-.6-.2-.8,0,0,0,0,0,0,0,0-.1-.2-.2-.2,0,0-.2-.2-.3-.2-.5-.3-1.1-.2-1.5,0l-1.7,1.2h0l-1.9,1.2c-.7.5-.9,1.4-.4,2.1s1.4.9,2.1.4l1.3-.9v6.3h0v3.7h0v9.5h0v3.7h0v2c0,1.3-.7,2.5-1.7,3.2-.4.2-.8.5-1.1.7-.9.6-2,.9-3.1.9h-1.7v-1.8l-.5-.6c-.6-.7-.5-1.7.1-2.3l.5-.5v-9.6l-5.9-5.2h0c-.3-.3-.3-.8,0-1.1.3-.3.8-.4,1.1-.1l4.8,4.3h1.8v-1.1c0-.9-.2-1.8-.6-2.7-.1-.2-.2-.5-.4-.7h0c-.2-.3-.5-.7-.7-1.1h0c-1.4-2-3.6-4.4-6.1-4.4s-4,1.6-5.4,3.1h0c-.5.6-1,1.2-1.4,1.7h0c-.2.3-.4.6-.6.9,0,0,0,0,0,0-.2.3-.3.6-.4,1h0c-.2.6-.3,1.2-.3,1.8v1.3h1.4c1,.3,1.2,1.2,1.2,2.2v4.2h0v3.7h0v6.8c-2.8,0-5.4,0-7.6,0-.8,0-1.5.7-1.5,1.5,0,.7.4,1.2,1,1.4,0,0,0,0,0,0,.1,0,.3,0,.4,0,3.8,0,7.7-.1,11.5,0h11.5c.3,0,.5,0,.8-.2l2.8-1.8s0,0,0,0c1.1-.7,2.5-.6,3.4.3.5.5,1.1,1,1.6,1.5.6.6,1.2,1.1,1.8,1.7,0,0,.2.2.3.2.6.6,1.2,1.1,1.8,1.7,0,0,.2.2.2.2.6.6,2.6,2.9,3.7,2.9,1.6,0,2.4-1.9,3.6-3.1.2-.2.3-.3.5-.4,0,0,0,0,0,0,.2-.1.4-.2.6-.3h0c.2,0,.4-.1.6-.1h.2c.1,0,.2,0,.4,0,0,0,.1,0,.2,0,.1,0,.2,0,.4,0,0,0,0,0,.1,0,.8.2,1.6.8,2.8,1,1,.3,2.6.2,3.3-.6.2-.2.4-.4.6-.6.4-.4,0-.1.6-.4,2.1-.6,4,.2,6.7.2.9,0,1.6-.9,1.5-1.8-.4-3.1-.2-7.1,1.1-10.3.1-.4.3-.7.4-1h0c.2-.3.3-.6.5-.9,0,0,0,0,0,0,.2-.3.4-.6.6-.9h0c.2-.3.4-.6.7-.8.5-.5,1-.9,1.6-1.2,3-1.6,5.6-.6,7.7,1.2.3.2.6.5.8.8h0c.2.3.5.6.7.9,0,0,0,0,0,.1.2.3.4.6.7.9,0,0,0,0,0,.1.2.3.5.6.7.9h0c.7,1,1.2,1.9,1.8,2.9.6,1.1,2.3,1,2.7-.2.4-.9.9-1.8,1.4-2.7.4-.6.8-1.3,1.2-1.9,0,0,0,0,0,0,.4-.6.9-1.2,1.3-1.8.4-.5.8-1,1.3-1.4,2.2-2.3,5.1-3.3,8-4.6,1.4-.6,1.3-2.8-.2-3.2-.2,0-.3-.1-.5-.2h0c-.2,0-.3-.2-.5-.3,0,0,0,0,0,0-.1-.1-.3-.2-.4-.3h0c-.4-.4-.7-.8-1-1.2,0,0,0-.1,0-.1,0-.1-.1-.2-.2-.4,0,0,0-.2-.1-.2,0-.1,0-.2-.1-.4,0,0,0-.2,0-.3,0-.1,0-.2,0-.4-.5-2.2.1-4.7,1.5-6.3,3.4-3.9,8-2.1,12.3-1.3,2,0,2.2-1.6,2.3-3.4,0-.6.1-1.3.2-1.9,0-.2.1-.4.2-.6,1-4.1,3.9-6.8,7.4-8.9.8-.5,1-1.6.5-2.3-.9-1.6-1.8-3.1-2.4-4.7-.5-1.9-.7-3.7-.6-5.5h0c0-.3,0-.6,0-.9h0c0-.3,0-.6.1-.9,0,0,0-.1,0-.2,0-.2.1-.5.2-.7,0,0,0-.2,0-.2,0-.2.1-.5.2-.7,1-3.1,3-5.8,5.5-7.9,2.1-1.8,4.7-3,7.5-3.7h0c1.4-.3,2.8-.5,4.3-.4h0c10.4,19.2,16.3,41.2,16.3,64.5s-.8,16.9-2.3,25c0,0,0,0,0,.1h0c0,0-.1.2-.2.3h0c-.1.1-.2.3-.3.4h0c-.1.1-.2.2-.3.4,0,0,0,0,0,0-.1.1-.2.2-.3.3,0,0,0,0,0,0-.2.2-.5.4-.8.5,0,0,0,0-.1,0-.1,0-.2,0-.3.1,0,0-.1,0-.1,0-.1,0-.2,0-.4,0,0,0-.1,0-.2,0-.2,0-.4,0-.6,0-1.2,0-2.5-.2-3.5.7-.1.1-.3.3-.4.4-.1.1-.2.3-.3.4h0c-.2.4-.4.8-.6,1.2-.8,1.3-2.1,2.2-3.1,3.4-.8,1.1-1.4,2.5-1.4,3.9,0,.4.1.8.1,1.1,0,.5-.5.8-.9,1-.4.2-.7.2-1,0v-11h2.1v-1.9s0,0,0,0c0,0,0,0,0,0,0,0,0,0,0,0,0,0,0-.1,0-.2,0,0,0,0,0,0,0-.1,0-.2-.1-.4,0,0,0-.1,0-.2,0-.2-.1-.4-.2-.6-.7-1.9-1.9-5.4-3.2-9.4-.4-1.2-.8-2.4-1.2-3.7-1.1-3.3-2.1-6.7-2.9-9.5,0-.3-.2-.7-.3-1,0,0,0,0,0,0,0-.3-.2-.6-.2-.9h0c0-.3-.1-.6-.2-.9h0c0-.3-.1-.6-.2-.8,0-.1,0-.3,0-.4,0-.3-.5-.3-.5,0,0,.1,0,.2,0,.4h0c-.2,1-.5,2.3-.8,3.7h0c-.7,2.8-1.5,6.1-2.5,9.5h0c-.4,1.2-.7,2.5-1.1,3.7h0c-1.1,3.8-2.2,7.2-3,9.4h0c-.1.3-.2.6-.3.9,0,0,0,0,0,0-.1.3-.2.5-.3.7,0,.2,0,.4,0,.6h0v.6h0v.5h0v.4h0v.2h1.5v5.8h-4.8l-6.7-15.2c0-.3-.5-.3-.6,0l-2.1,5.5h0l-1.4,3.7h0l-1.7,4.5h-.4v-7.9h-13.9v3.5h0v4.9h-.8l-5.1-10.6c-.2-.4-.7-.4-.9,0l-1.2,2.1h0l-2.1,3.7h0l-1.4,2.5h-.4v-2h-1.9v4.6l-2.2,1.4v2.1h15.6l-1,4.6c-.1.6.2,1.2.7,1.5.3.1.6.3.8.4l-2.5,5.6c-.1.3,0,.7.3.9.4.3.9.1,1.1-.3l7.8-13.9c.2-.4.8-.4,1,0l10.6,17.5,6.9-7.1c.3-.3.8-.3,1,0l4.1,4.2,1.2-1.4-2.1-2.8,1.9-3.3h1.8v-12.2h4.3v13.8c-.3.4-.7.6-1.1.9-1.5,1.1-1.8,3-1.9,4.7,0,.6,0,.9-.5,1.3-1.3,1.1-1.4,2.8-1.1,4.3.2.8.3,1.6.3,2.4,0,.5-.2,1.1-.6,1.5-1,1-2.5.7-3.7.3-1.5-.5-2.8-1.1-4.4-1-1.5.1-2.9.8-3.8,1.9-.4.5-.8,1.2-1.4,1.5-.6.3-1.4.1-2-.2-.5-.3-.9-.7-1.3-.9-.6-.3-1.3-.4-1.9-.2-.7.2-1.3.6-2,.9-.7.3-1.4.4-2.2.6-.3.1-.7.2-.9.5-.1.2-.2.4-.2.6-.1.6-.2,1.2-.4,1.8s-.6,1.1-.8,1.7c-.3,1.2.6,2.9,1.5,3.7.3.2.6.5.6.9,0,.4-.3.8-.7,1-.9.3-1.6-.3-2.4-.5-.4-.1-.9-.2-1.2-.4-.4-.2-.7-.6-.8-1-.2-.5-.2-1-.1-1.5.3-2-2.1-3.1-3.8-3.3-.6,0-1.3-.1-1.9,0-.7.2-1.4.6-2.2.4-.6-.2-1.1-.7-1.3-1.4-.5-1.9,1.9-2.9,2.8-4.2.8-1.1,1.1-2.5.9-3.9-.1-.8-.4-1.4-.9-2-.4-.5-.9-1.1-1.2-1.7-.5-.9-.5-1.9-1.4-2.6-.9-.9-2.3-.5-3.4-.5-1.4,0-1.2-1.3-.6-3,.3-.7-.3-2.2-.5-2.9-.4-2.1-1.9-3.9-4.4-4.2-3.6-.3-6.9,1.9-6.9,5.2s.5,1.5-.2,1.8c-.7.3-1.1-.7-1.6-1-.8-.6-2-.8-2.9-.6-1.8.2-3.6,1.6-3.9,3.5-.6,2.9,1,5.3,3.7,5.9,1.9.5,1.2,3.4.7,4.1-.5.6-3.2,2.4-4.1.7,0-.2,0-.3,0-.5,0-1.5-1.2-2.8-2.6-2.9-.3-3.6-3.5-6.4-7.2-6-2.6.3-4.9,2.3-5.5,4.8-.4,1.4-.2,2.8.2,4-3.5.5-6.2,3.5-6.2,7.1s1.2,4.5,2.7,6.2c1.1,1.2,0,3.6-2.8,3.4-.1,0-.2,0-.3,0-3.6,0-6.7,3.1-6.7,6.7s2.2,6.1,5.4,6.2c.3,1.9,2.2,2.9,3.9,2.9s1.6-.3,2.3-.8v1.8c-.7.5-1.7,1.6-2.2,3.2-3-1.9-5.9-1-7.6.6-.1.1-.3.1-.4.1-4.2-1.3-6.7.9-7.4,2.3-.4.7-.1,1.6.6,2,.2.1.5.2.7.2.5,0,1-.3,1.3-.8.2-.3,1.2-1.8,3.9-.9,1.2.4,2.5,0,3.4-.8.7-.7,2.7-1.9,5.4,1,0,0,0,0,0,0,.5,1.9,1.8,4,3.7,5.7,2,1.8,5.5,4.2,11,4.8,4,.4,8.1.8,12.1,1.1,4.9.4,9.6.8,12.6,1.3,3.4.5,4.8,1.7,5.7,3h0s0,0,0,0c-4.6,2.9-9.5,5.5-14.5,7.8h0c-4.8-2.2-9.8-2.7-14.9-3.7-9.2-1.7-18.3-3.5-27.5-5.5l2.1,4c8.2,1.8,16.5,3.5,24.7,5,4,.7,7.9,1.6,11.9,1.8-8.1,3.5-16.7,6.2-25.5,8l4.1,7.8c64.3-14.6,112.5-72.3,112.5-141S266.9,42.5,187.1,42.5h0ZM101.1,81.6h56.5l-1.3,7.1h-63.2c2.6-2.5,5.3-4.8,8.1-7.1h0ZM83,218.3c0,0-.3.1-.4.1-.3.1-.5.2-.7.4-.7.5-1,1.3-1.1,2.1,0,.2,0,.4,0,.6s0,.4,0,.6c-.4,1.7-2,1.4-2.3-.1-.2-.9-.6-1.7-1.3-2.4-.8-.8-2-1.1-3-.7-.2-.2-.4-.5-.6-.7-2.5-2.5-6.6-2.5-9.1,0-1.2,1.2-1.9,2.9-1.9,4.5h0c-1.8,0-3.5.6-4.8,2-.4.4-.7.9-1,1.4-1-3.3-1.8-6.6-2.6-10h28.3s0,.1,0,.1c0,.4.2.8.3,1.2,0,.2.1.4.2.6,0,0,.1.2,0,.3h0ZM134.4,216.4c-.9.7-1.9,1.3-2.8,2.1-2,1.8-2.5,5.3-2.1,7.9,0,.5.2,1,.1,1.5-.1,1.4-1.7,1.7-2.8,1.4-1.2-.2-2.5,0-3.3,1.1-.3.5-.5,1.4-1,1.7-.6.3-1.3.4-2,0-.4-.2-.6-.6-.7-.9,0-.3,0-.6,0-.9.2-1.4-.2-2.5-1-3.7-1.3-1.9-2.8-3.6-5.3-3.3-1.2.2-2.4.9-3.1,2h0c.5-1.6.2-3.4-1.1-4.6s-3.7-1.7-5.5-.7c-.6.4-1.2.9-1.6,1.6-.2.3-.3.7-.7.8-.4,0-.8-.2-1.1-.4-.4-.3-.9-.7-1.1-1.2-.3-.5-.2-1.1-.1-1.7.1-.8.3-1.6.3-2.4,0-.2,0-.4,0-.6h35.3c-.1.1-.3.2-.4.3h0ZM155.7,206.7h0c-.9,0-1.9.1-2.8.3-.3,0-.6.2-1,.3-.8.3-1.6.7-2.4.9-.9.2-1.8.2-2.6.4-1.2.2-2.4.9-3.3,1.8-.3.3-.5.7-.8,1-.5.5-1.3.8-1.9,1.1,0,0,0,0,0,0h-42c-.2-.6-.4-1.2-.8-1.8-.9-1.6-2.3-2.8-4-3.5-1.3-.6-2.8-.8-4.3-.6-3.3.4-6.1,2.8-7.1,5.9h-29.3c-.6-3.1-1.1-6.2-1.4-9.4h103.8v3.7c0,0,0,0,0,0ZM155.9,199.4H51.6c-.3-3.1-.5-6.3-.5-9.5h105l-.2,9.5h0ZM156.2,186.2H51c0-3.2.1-6.4.4-9.5h105l-.2,9.5ZM156.5,173H51.7c.3-3.1.8-6.2,1.3-9.2h103.7l-.2,9.2ZM156.8,160.1H53.7c.6-3.1,1.3-6.1,2.2-9.1h101.1l-.2,9.1ZM157.1,147.3H56.9c1-3.1,2-6.2,3.2-9.2h97.2l-.2,9.2h0ZM157.4,134.4H61.5c1.1-2.6,2.3-5.2,3.6-7.8h92.4l-.2,7.8h0ZM157.6,122.9h-90.6c1.6-2.9,3.2-5.8,5-8.6h85.8l-.2,8.6h0ZM157.9,110.1v.6h-83.5c1.7-2.6,3.6-5.1,5.5-7.5h78v6.9h0ZM157.9,99.5h-75c2.1-2.4,4.2-4.8,6.4-7.1h66.9l1.7,1.6h0v5.5h0ZM158.2,77.9h-52.4c3.4-2.5,6.8-4.8,10.4-7h43.3l-1.3,7h0ZM171.9,88.7h-5.2l.8,3.7h4.5v2.2h0l-5.4,4.9h0l-4.2,3.8h0v-.2h0v-3.7h0v-5.7h0l.9-.8,1.2-1-3.1-15.9h0l-1-5.3h10.3l-1.4,7h-4.8l.8,3.7h3.3,0c0,.1,3.4,3.5,3.4,3.5h0v3.6h0ZM172.6,60.6l-1.3,6.6h-48.7c4.5-2.4,9.2-4.6,14-6.5h35.9,0ZM205.1,94.4l-2,2.4h0l-2.6-4.4h4.7v2.1h0ZM205.1,88.7h-9.4v3.7h2.5l-2.5,4.4h-2v-4.4h0v-3.7h0v-4.8l2.5-2.3h0l.2-.2-1.7-5.3-1.7-5.2h11l-1.4,7h-5.2l1.1,3.7h5.6l.9,1.1v6.1h0ZM299.7,110.7h-86.8v-7.5h81.3c1.9,2.4,3.7,4.9,5.5,7.5ZM212.6,98.9l-3.8-5.3v-1.2h0v-3.7h0v-6.5l.6-.6,1.9-2-3.1-14.6h0l-.9-4.4h30.2c4.8,1.9,9.5,4.1,14,6.5h-40.7l.8,3.7h46.3c3.6,2.2,7.1,4.5,10.4,7h-55.2l.8,3.7h59.1c2.8,2.3,5.5,4.6,8.1,7.1h-70.5v3.7h74.2c2.2,2.3,4.4,4.7,6.4,7.1h-78.3c0-.2-.1-.4-.2-.6h0ZM233.9,198.2c0,.2-.2.4-.4.4-2-.1-4.4-.3-6.2.8h-5c-1-.3-1.9-.2-2.7,0h-6.7v-9.5h22.2c-.8,2.7-1.1,5.6-1.2,8.4h0ZM266,178.3c-3.7,1.9-6.5,4.5-8.7,7.9h-3.4c-3.2-3.7-8.3-6.1-13.1-3.9-1.8.9-3.1,2.3-4.1,3.9h-23.8v-9.5h52.5c.2.4.4.8.7,1.1.1.2,0,.4-.1.6ZM264.7,168.7c-.4,1.3-.5,2.8-.3,4.3h-51.5v-9.2h54.5c-1.2,1.4-2.1,3.1-2.7,4.9h0ZM282.6,154.1c-1.1,1.9-2,3.8-2.6,5.9,0,0,0,0,0,.1h-.9c-1.7-.5-3.5-.7-5.3-.3-.3,0-.6.2-.9.3h-59.8v-9.1h72.3c-1,.9-1.9,2-2.6,3.1h0ZM212.9,147.3v-9.2h72.3c0,.2,0,.4,0,.5-.3,3,.7,6,2.1,8.7h-74.4ZM285.8,134.4h-72.9v-7.8h77c-1.9,2.2-3.4,4.9-4.1,7.8h0ZM294.1,122.9h-81.2v-8.6h89.2c1,1.6,2,3.3,3,4.9-3.9.2-7.7,1.5-11,3.6h0ZM272.9,223.1h-1.7l-1.5-2.3h-6.1v-4.7h9.4v7h0ZM261.2,301.1c-1.2-1.8-3.2-3.7-7.8-4.4-3.1-.5-7.9-.9-12.8-1.3-4-.3-8.1-.7-12.1-1.1-8.2-.9-12.3-6.4-12.3-9.2s1.4-3.1,1.5-3.1l.9-.4v-8.1h0s9.3,3,34.1,3,28.1-1.3,34.9-4.6c3.1-1.5,4.6-.8,5.4.4-9,11.2-19.8,21-31.9,28.9h0ZM304,227.4c0,.1-.1.2-.2.4-.2.5-.6,1.5-1.2,1.5s-.7-.5-1.2-.6c-.2,0-.4,0-.6.1v-9.8h3.2v8.4h0Z"/>
  <path class="st0" d="M152.4,345.1l-6.5,12.3c-.4.8.7,1.4,1.1.7,1.9-2.7,4.5-6.9,7.3-11.2l-1.9-1.8h0Z"/>
  <path class="st0" d="M228.2,357.3l-6.5-12.3-1.9,1.8c2.8,4.4,5.4,8.5,7.2,11.2.5.7,1.6,0,1.1-.7h0Z"/>
  <path class="st0" d="M211.3,333.2l2.8-2.6-17.9-33.8c-1.9,3.1-5.2,5.2-9.1,5.2s-7.2-2.1-9.1-5.2l-17.9,33.8,2.8,2.6c1.9-3,3.5-5.5,4.4-6.9,5.8-8.6,10.4-8,10.4-8l9.4-15.7,9.4,15.6s4.6-.6,10.4,8c.9,1.4,2.5,3.9,4.4,7h0Z"/>
  <path class="st0" d="M173.2,298.3l1.3-2.8c0,0-.1,0-.2,0-8.7-2.2-17.4-4.7-25.9-7.5-6.5-2.1-13-4.5-19.1-7.4-3.6-1.8-7.4-3.6-10.2-6.4-.2-.2-.5-.3-.7-.1-.2.2-.2.5,0,.7,1.4,1.7,3.2,2.9,4.9,4,4,2.6,8.6,4.8,12.9,6.8,11.2,5,23.5,8.9,35.3,12.2.6.2,1.2.3,1.8.5,0,0,0,0,.1,0h0Z"/>
</svg>